<svg width="50" height="50" viewBox="0 0 50 50" fill="none" xmlns="http://www.w3.org/2000/svg">
    <path d="M49.1665 0H11.6666C11.2064 0 10.8333 0.373124 10.8333 0.833332V13.3333H12.5V1.66666H48.3332V47.5C48.3412 47.8094 48.1982 48.1062 47.9553 48.3019C47.7124 48.4977 47.3957 48.5781 47.0832 48.5167C42.3057 47.4881 37.4774 46.6663 32.6248 46.0533C32.3557 46.0107 32.1156 45.8669 31.9456 45.6467C31.7756 45.4265 31.6853 45.1445 31.6915 44.8567V42.5H30.0248V44.8567C30.0248 45.5533 30.2798 46.2117 30.7465 46.72C31.2132 47.2283 31.8648 47.5533 32.5748 47.6333C37.4364 48.2471 42.2741 49.0701 47.0598 50.1C47.1798 50.125 47.3032 50.1417 47.4282 50.1417C48.0265 50.1417 48.6082 49.9117 49.0548 49.4917C49.5015 49.0717 49.7648 48.5 49.7648 47.9V0.833332C49.7648 0.373124 49.3917 0 48.9315 0H49.1665Z" fill="white"/>
    <path d="M34.9999 40.8333H0.833313C0.373104 40.8333 0 41.2065 0 41.6667V45.8333C0 46.2935 0.373104 46.6667 0.833313 46.6667H34.9999C35.4601 46.6667 35.8332 46.2935 35.8332 45.8333V41.6667C35.8332 41.2065 35.4601 40.8333 34.9999 40.8333ZM34.1666 45H1.66663V42.5H34.1666V45Z" fill="white"/>
    <path d="M34.9999 29.1667H0.833313C0.373104 29.1667 0 29.5398 0 30V34.1667C0 34.6269 0.373104 35 0.833313 35H34.9999C35.4601 35 35.8332 34.6269 35.8332 34.1667V30C35.8332 29.5398 35.4601 29.1667 34.9999 29.1667ZM34.1666 33.3333H1.66663V30.8333H34.1666V33.3333Z" fill="white"/>
    <path d="M34.9999 17.5H0.833313C0.373104 17.5 0 17.8731 0 18.3333V22.5C0 22.9602 0.373104 23.3333 0.833313 23.3333H34.9999C35.4601 23.3333 35.8332 22.9602 35.8332 22.5V18.3333C35.8332 17.8731 35.4601 17.5 34.9999 17.5ZM34.1666 21.6667H1.66663V19.1667H34.1666V21.6667Z" fill="white"/>
    <path d="M34.9999 5.83337H0.833313C0.373104 5.83337 0 6.20649 0 6.66671V10.8334C0 11.2936 0.373104 11.6667 0.833313 11.6667H34.9999C35.4601 11.6667 35.8332 11.2936 35.8332 10.8334V6.66671C35.8332 6.20649 35.4601 5.83337 34.9999 5.83337ZM34.1666 10H1.66663V7.50004H34.1666V10Z" fill="white"/>
</svg>
